<?xml version="1.0"?>
<svg xmlns="http://www.w3.org/2000/svg" id="Outline" viewBox="0 0 512 512" width="512" height="512"><path d="M488,368H472V104.634A40.68,40.68,0,0,0,431.366,64H80.634A40.68,40.68,0,0,0,40,104.634V368H24a8,8,0,0,0-8,8v27.05A45,45,0,0,0,60.95,448h390.1A45,45,0,0,0,496,403.05V376A8,8,0,0,0,488,368ZM56,104.634A24.662,24.662,0,0,1,80.634,80H431.366A24.662,24.662,0,0,1,456,104.634V368H56ZM294.624,384A24.039,24.039,0,0,1,272,400H240a24.039,24.039,0,0,1-22.624-16ZM480,403.05A28.983,28.983,0,0,1,451.05,432H60.95A28.983,28.983,0,0,1,32,403.05V384H200.805A40.067,40.067,0,0,0,240,416h32A40.067,40.067,0,0,0,311.2,384H480Z"/><path d="M432,96H80a8,8,0,0,0-8,8V344a8,8,0,0,0,8,8H432a8,8,0,0,0,8-8V104A8,8,0,0,0,432,96Zm-8,240H88V112H424Z"/><path d="M152.007,304a7.967,7.967,0,0,0,4.547-1.422l208-144a8,8,0,0,0-9.108-13.156l-208,144A8,8,0,0,0,152.007,304Z"/><path d="M168.007,240a7.969,7.969,0,0,0,4.581-1.446l80-56a8,8,0,1,0-9.176-13.108l-80,56A8,8,0,0,0,168.007,240Z"/><path d="M339.412,209.446l-80,56a8,8,0,0,0,9.176,13.108l80-56a8,8,0,1,0-9.176-13.108Z"/></svg>
