<svg id="Layer_3" enable-background="new 0 0 64 64" height="512" viewBox="0 0 64 64" width="512" xmlns="http://www.w3.org/2000/svg"><g><path d="m13 37c2.851 0 5-1.29 5-3s-2.149-3-5-3-5 1.29-5 3 2.149 3 5 3zm0-4c1.936 0 3 .751 3 1s-1.064 1-3 1-3-.751-3-1 1.064-1 3-1z"/><path d="m30.6 53.2-2.4-1.8c-2.406-1.806-5.995-1.805-8.399 0l-1.418 1.063c-.925-1.503-2.561-2.463-4.383-2.463-.321 0-.623.154-.812.416-.188.261-.239.596-.137.901l.895 2.683-.895 2.684c-.103.305-.051.64.137.901.189.261.491.415.812.415 1.822 0 3.459-.961 4.383-2.463l1.417 1.063c1.203.903 2.694 1.4 4.2 1.4s2.997-.498 4.199-1.4l2.4-1.8c.252-.189.4-.485.4-.8s-.147-.611-.399-.8zm-15.083 2.414.432-1.297c.069-.206.069-.427 0-.633l-.432-1.297c.636.348 1.146.911 1.424 1.614-.278.701-.788 1.265-1.424 1.613zm11.482-.614c-1.717 1.29-4.28 1.291-5.999 0l-1.333-1 1.334-1c1.717-1.29 4.28-1.291 5.999 0l1.333 1z"/><path d="m46 1c-5.88 0-17 1.045-17 5v21.37c-2.257-.245-4.631-.37-7-.37-10.436 0-21 2.404-21 7v22c0 4.596 10.564 7 21 7s21-2.404 21-7v-1.077c.989.046 1.99.077 3 .077 5.88 0 17-1.045 17-5v-44c0-3.955-11.12-5-17-5zm0 2c9.743 0 15 2.129 15 3s-5.257 3-15 3-15-2.129-15-3 5.257-3 15-3zm-24 26c11.771 0 19 2.912 19 5s-7.229 5-19 5-19-2.912-19-5 7.229-5 19-5zm21 5c0-.953-.46-1.811-1.274-2.573.549-.277 1.153-.427 1.774-.427h1c.783 0 1.542.229 2.193.664l.504.336c.98.654 2.123 1 3.303 1s2.322-.346 3.303-1l.142-.095c-.451 3.986-3.84 7.095-7.945 7.095-1.045 0-2.049-.207-3-.594zm9.693-3.664c-1.303.869-3.084.869-4.387 0l-.503-.336c-.98-.654-2.123-1-3.303-1h-1c-1.18 0-2.322.346-3.303 1l-.266.177c-.532-.287-1.123-.555-1.766-.803.755-3.684 3.994-6.374 7.835-6.374 3.918 0 7.18 2.833 7.863 6.556zm-44.693 28.919v-13.93c3.787 1.071 8.792 1.675 14 1.675 5.209 0 10.214-.604 14-1.675v13.93c-3.281 1.003-8.06 1.745-14 1.745s-10.719-.742-14-1.745zm30-.719v-14.567c0-.322-.155-.625-.418-.813s-.599-.237-.904-.134c-3.698 1.257-9.047 1.978-14.678 1.978-5.629 0-10.979-.721-14.678-1.978-.306-.104-.642-.04-.904.149-.263.188-.418.507-.418.829v14.536c-1.947-.828-3-1.741-3-2.536v-18.836c3.549 2.528 11.307 3.836 19 3.836s15.451-1.308 19-3.836v18.836c0 .795-1.053 1.708-3 2.536zm8-5.536c-1.011 0-2.012-.032-3-.079v-7.998c.989.046 1.99.077 3 .077 4.34 0 11.529-.571 15-2.459v7.459c0 .871-5.257 3-15 3zm0-10c-1.011 0-2.012-.032-3-.079v-2.393c.965.304 1.966.472 3 .472 5.514 0 10-4.486 10-10s-4.486-10-10-10c-4.717 0-8.702 3.251-9.734 7.735-1.58-.461-3.363-.832-5.266-1.11v-11.084c3.471 1.888 10.66 2.459 15 2.459s11.529-.571 15-2.459v23.459c0 .871-5.257 3-15 3zm0-26c-9.743 0-15-2.129-15-3v-5.459c3.471 1.888 10.66 2.459 15 2.459s11.529-.571 15-2.459v5.459c0 .871-5.257 3-15 3z"/></g></svg>