<svg height="512" viewBox="0 0 60 60" width="512" xmlns="http://www.w3.org/2000/svg"><g id="Page-1" fill="none" fill-rule="evenodd"><g id="038---Frozen-Chicken" fill="rgb(0,0,0)" fill-rule="nonzero" transform="translate(-1 -1)"><path id="Shape" d="m45 36v1.132l-1.445-.964c-.297245-.1982824-.6776931-.2229246-.9980331-.0646441-.3203401.1582805-.5319049.4754371-.555.832s.1457881.6983617.4430331.8966441l2.555 1.703v4.733l-4.1-2.368-.2-3.063c-.0353462-.5522847-.5117153-.9713462-1.064-.936s-.9713462.5117153-.936 1.064l.12 1.735-.98-.565c-.3095704-.1814844-.6926495-.1831833-1.0038174-.0044519-.311168.1787315-.5027136.5104885-.5019247.8693336s.1937913.6897567.5057421.8671183l.979.566-1.556.77c-.4962278.2446621-.7001621.8452722-.4555 1.3415s.8452722.7001621 1.3415.4555l2.751-1.366 4.1 2.366-4.1 2.366-2.752-1.361c-.4944616-.2405173-1.090346-.0367057-1.3339366.4562491-.2435906.4929549-.0434923 1.0900964.4479366 1.3367509l1.556.77-.979.566c-.3119508.1773616-.5049532.5082732-.5057421.8671183s.1907567.6906021.5019247.8693336c.3111679.1787314.694247.1770325 1.0038174-.0044519l.98-.565-.112 1.733c-.0169874.2646893.0718754.5252847.247037.7244514.1751617.1991667.422272.3205877.686963.3375486h.065c.5282269.0010828.9661945-.4088549 1-.936l.2-3.063 4.094-2.365v4.733l-2.555 1.7c-.4595009.3065181-.583518.9274991-.2769999 1.387.306518.4595009.927499.583518 1.3869999.277l1.445-.961v1.132c0 .5522847.4477153 1 1 1s1-.4477153 1-1v-1.132l1.445.964c.4595009.306518 1.080482.1825009 1.387-.277s.1825009-1.080482-.277-1.387l-2.555-1.703v-4.733l4.1 2.368.2 3.063c.0338055.5271451.4717731.9370828 1 .936h.065c.264691-.0169609.5118013-.1383819.686963-.3375486.1751616-.1991667.2640244-.4597621.247037-.7244514l-.119-1.737.98.565c.3095704.1814844.6926495.1831833 1.0038174.0044519.311168-.1787315.5027136-.5104885.5019247-.8693336s-.1937913-.6897567-.5057421-.8671183l-.979-.566 1.556-.77c.4914289-.2466545.6915272-.843796.4479366-1.3367509-.2435906-.4929548-.839475-.6967664-1.3339366-.4562491l-2.751 1.362-4.1-2.366 4.1-2.366 2.751 1.366c.4944616.2405173 1.090346.0367057 1.3339366-.4562491.2435906-.4929549.0434923-1.0900964-.4479366-1.3367509l-1.556-.77.979-.566c.3119508-.1773616.5049532-.5082732.5057421-.8671183s-.1907567-.6906021-.5019247-.8693336c-.3111679-.1787314-.694247-.1770325-1.0038174.0044519l-.98.565.112-1.733c.0169874-.2646893-.0718754-.5252847-.247037-.7244514-.1751617-.1991667-.422272-.3205877-.686963-.3375486-.2653983-.0200162-.5276626.0677813-.7275188.2435493-.1998562.1757681-.3204338.4246696-.3344812.6904507l-.196 3.057-4.1 2.368v-4.733l2.555-1.7c.297245-.1982824.4661283-.5400812.4430332-.8966441s-.2346599-.6737196-.555-.832c-.3203401-.1582805-.7007882-.1336383-.9980332.0646441l-1.445.961v-1.132c0-.5522847-.4477153-1-1-1s-1 .4477153-1 1z"/><path id="Shape" d="m45.624 7.786c.289484-.28940949.3761141-.72470916.219491-1.10289961s-.5256515-.6247845-.934991-.6247845-.7783679.24659405-.934991.6247845-.069993.81349012.219491 1.10289961c.1895182.19022187.4469828.29714675.7155.29714675s.5259818-.10692488.7155-.29714675z"/><path id="Shape" d="m41.33 7.786c.394879-.39532959.3946355-1.03588272-.000544-1.43091196-.3951794-.39502924-1.0357326-.39502924-1.430912 0-.3951795.39502924-.395423 1.03558237-.000544 1.43091196.1898199.19003649.4474009.29681611.716.29681611s.5261801-.10677962.716-.29681611z"/><path id="Shape" d="m37.035 9.218c.289484-.28940949.3761141-.72470916.219491-1.10289961s-.5256515-.6247845-.934991-.6247845-.7783679.24659405-.934991.6247845-.069993.81349012.219491 1.10289961c.3954176.39453674 1.0355824.39453674 1.431 0z"/><path id="Shape" d="m36.319 11.365c-.2898914.2896494-.3767144.7254251-.2199709 1.1040611.1567436.378636.5261737.6255371.9359709.6255371s.7792273-.2469011.9359709-.6255371c.1567435-.378636.0699205-.8144117-.2199709-1.1040611-.3955326-.3952024-1.0364674-.3952024-1.432 0z"/><path id="Shape" d="m39.9 13.513c-.394879.3953296-.3946355 1.0358827.000544 1.430912.3951794.3950292 1.0357326.3950292 1.430912 0 .3951795-.3950293.395423-1.0355824.000544-1.430912-.1898199-.1900365-.4474009-.2968161-.716-.2968161s-.5261801.1067796-.716.2968161z"/><path id="Shape" d="m40.614 9.934c-.289484.2894095-.3761141.7247092-.219491 1.1028996.1566231.3781905.5256515.6247845.934991.6247845s.7783679-.246594.934991-.6247845c.1566231-.3781904.069993-.8134901-.219491-1.1028996-.3951895-.39508785-1.0358105-.39508785-1.431 0z"/><path id="Shape" d="m44.909 9.934c-.289484.2894095-.3761141.7247092-.219491 1.1028996.1566231.3781905.5256515.6247845.934991.6247845s.7783679-.246594.934991-.6247845c.1566231-.3781904.069993-.8134901-.219491-1.1028996-.1895182-.19022187-.4469828-.29714675-.7155-.29714675s-.5259818.10692488-.7155.29714675z"/><path id="Shape" d="m48.487 7.786c-.2898914.28964938-.3767144.7254251-.2199709 1.10406112.1567436.37863602.5261737.62553709.9359709.62553709s.7792273-.24690107.9359709-.62553709c.1567435-.37863602.0699205-.81441174-.2199709-1.10406112-.3955326-.39520238-1.0364674-.39520238-1.432 0z"/><path id="Shape" d="m44.193 13.513c-.289484.2894095-.3761141.7247092-.219491 1.1028996.1566231.3781905.5256515.6247845.934991.6247845s.7783679-.246594.934991-.6247845c.1566231-.3781904.069993-.8134901-.219491-1.1028996-.1895182-.1902219-.4469828-.2971468-.7155-.2971468s-.5259818.1069249-.7155.2971468z"/><path id="Shape" d="m32.025 9.934c-.289484.2894095-.3761141.7247092-.219491 1.1028996.1566231.3781905.5256515.6247845.934991.6247845s.7783679-.246594.934991-.6247845c.1566231-.3781904.069993-.8134901-.219491-1.1028996-.1895182-.19022187-.4469828-.29714675-.7155-.29714675s-.5259818.10692488-.7155.29714675z"/><path id="Shape" d="m55.637 6.363c-7.7-7.7-18.622-7.124-27.184 1.43-6.033 6.033-10.045 15.107-9.983 22.588.0867779 2.4957422-.7872845 4.9296588-2.442 6.8-.9800251 1.1143589-2.2245089 1.964418-3.619 2.472-.1360823.0310211-.2637322.091433-.374.177l-.008.007c-.0988488.0742726-.1823855.1669779-.246.273l-.005.008c-.0642965.1067641-.1074161.2249184-.127.348v.008c-.0139346.0520859-.0233034.1052872-.028.159.0064878.0680258.0205757.1351108.042.2v.028c0 .009.007.012.008.018.0295207.1095355.0779119.2130858.143.306.0111735.0187679.0235318.0368044.037.054.0600644.0770783.1315565.1445236.212.2.0294125.0221643.0601349.0425346.092.061.1214322.0597714.2518178.0992925.386.117.0293355.0075346.0590421.0135426.089.018.0575146-.0070827.1143651-.0187872.17-.035h.067c.656435-.1271105 1.3245202-.1840972 1.993-.17l-6.474 6.475c-1.60327335-1.288406-3.87215571-1.3389078-5.53116864-.1231153-1.65901293 1.2157926-2.29421851 3.3945288-1.54852858 5.3114069.74568993 1.9168782 2.68621935 3.0936208 4.73069722 2.8687084-.01731928.166104-.02599764.3329955-.026.5.0060867 1.9910766 1.30852865 3.7459547 3.21250436 4.3284491 1.90397574.5824943 3.96533684-.1432761 5.08439674-1.7901301s1.0347708-3.8306231-.2079011-5.386319l6.465-6.465c.0060234.6627949-.0475253 1.3247904-.16 1.978-.006.026 0 .051 0 .076-.0138005.0585052-.0228302.1180339-.027.178 0 .026.013.05.015.076.0058809.0550863.0162487.1096007.031.163.0185548.080893.0471077.1591615.085.233.016.028.036.052.054.079.0346773.0654223.0769711.1265134.126.182.3468011.3435397.8969859.3698622 1.275.061l.035-.024c.0345276-.021938.0679049-.0456359.1-.071.1262993-.1339554.213458-.2999721.252-.48.5063142-1.3971361 1.356481-2.644185 2.472-3.626 1.7653617-1.5641487 4.0413881-2.4293944 6.4-2.433-1.2302499 7.3743709 3.1606894 14.5280468 10.2930922 16.7694063 7.1324027 2.2413595 14.8260401-1.1147348 18.0351661-7.8672433 3.2091259-6.7525086.9527765-14.8373286-5.2892583-18.952163 8.498-8.554 9.057-19.447 1.375-27.128zm-43.681 46.561c-.2039581.2030196-.3105668.4840656-.292568.7712796.0179987.287214.15886.5527519.386568.7287204l.095.073c.0719926.0510176.1404798.1068097.205.167.9933315.994436.9933315 2.605564 0 3.6-1.0077966.9605083-2.59220336.9605083-3.6 0-.99333148-.994436-.99333148-2.605564 0-3.6.37049872-.3927896.36226899-1.0087668-.01859129-1.3915178-.38086028-.3827511-.99678917-.3940312-1.39140871-.0254822-.99363608.9916175-2.60283434.9905266-3.59512513-.002437-.9922908-.9929637-.9922908-2.6021623 0-3.595126.99229079-.9929636 2.60148905-.9940545 3.59512513-.002437.06137897.0656975.11817896.1355281.17.209l.069.09c.17572254.2276882.44097185.3686929.728.387.28675775.0194956.56781165-.0867209.77-.291l8.247-8.242c.6840356.1992577 1.3104722.5592787 1.827 1.05.4933835.5154758.8561645 1.1415987 1.058 1.826zm47.044-6.924c0 7.1797017-5.8202983 13-13 13s-13-5.8202983-13-13 5.8202983-13 13-13c7.1762751.008266 12.991734 5.8237249 13 13zm-13-15c-6.5595476.0079827-12.3558538 4.2701035-14.319 10.529h-.04c-3.0067013-.0785177-5.9313184.9860515-8.184 2.979-.3536493.3302249-.6894583.6790523-1.006 1.045-.1656598-1.541995-.827508-2.9885158-1.886-4.122-1.1337988-1.0567775-2.5798607-1.7171727-4.121-1.882.3675204-.3179702.7176917-.6554566 1.049-1.011 2.0034355-2.2435172 3.0690861-5.1705663 2.977-8.177-.058-6.975 3.718-15.476 9.4-21.154 7.714-7.707 17.501-8.28 24.353-1.43s6.277 16.64-1.43 24.356c-.115.114-.238.225-.356.339-2.0082876-.966726-4.2081498-1.469786-6.437-1.472z"/></g></g></svg>