<?xml version="1.0"?>
<svg xmlns="http://www.w3.org/2000/svg" viewBox="0 0 64 64" width="512" height="512"><g id="Outline"><g><path d="M61.259,17.147a1,1,0,0,0-1.225.707L59,21.718a5,5,0,0,1-6.124,3.535l-2.8-.75a5.012,5.012,0,0,1,5.768-2.6,1,1,0,1,0,.518-1.931,6.968,6.968,0,0,0-5.376.744l1.84-6.868a1,1,0,1,0-1.931-.518L49.053,20.2c-.012-.021-.021-.044-.033-.066a6.959,6.959,0,0,0-4.251-3.261l-1.084-.291a6.97,6.97,0,0,0,3.344-4.28l1.035-3.864a1,1,0,1,0-1.932-.518l-.776,2.9-2.9-.776a6.982,6.982,0,0,0-5.377.746l1.841-6.87A1,1,0,1,0,36.991,3.4L35.15,10.266a6.977,6.977,0,0,0-4.283-3.333,1,1,0,0,0-.518,1.932A5.007,5.007,0,0,1,34.046,14l-2.8-.75A5.007,5.007,0,0,1,27.71,7.123l1.036-3.864a1,1,0,1,0-1.932-.518L25.778,6.605a6.979,6.979,0,0,0,.745,5.376l-1.073-.288a1,1,0,0,0-1.224.707,6.973,6.973,0,0,0,.744,5.376L23.9,17.489a1,1,0,0,0-.517,1.931l3.863,1.036a4.957,4.957,0,0,1,3.524,3.6,19.822,19.822,0,0,0-16.884-.321,1,1,0,0,0,.813,1.828A17.839,17.839,0,0,1,22,24,17.984,17.984,0,0,1,32.581,56.538a1,1,0,1,0,1.178,1.616,20.031,20.031,0,0,0,3.956-3.832l2.048.546-1.435,5.357a1,1,0,0,0,.707,1.224.972.972,0,0,0,.259.035,1,1,0,0,0,.966-.742l1.694-6.321a5,5,0,0,1,6.124-3.536l2.8.751a5.006,5.006,0,0,1-5.768,2.595,1,1,0,0,0-.517,1.932,7,7,0,0,0,8.573-4.95,1,1,0,0,0-.707-1.224l-1.07-.287c.023-.012.046-.021.069-.034a6.954,6.954,0,0,0,3.261-4.25,1,1,0,0,0-.707-1.225l-1.084-.29a6.974,6.974,0,0,0,3.344-4.281,1,1,0,0,0-.707-1.225l-1.084-.29a6.97,6.97,0,0,0,3.344-4.28,1,1,0,0,0-.707-1.225l-1.084-.29a6.969,6.969,0,0,0,3.343-4.281,1,1,0,0,0-.707-1.224L57.6,26.52c.022-.013.046-.021.068-.034a6.951,6.951,0,0,0,3.262-4.251l1.035-3.863A1,1,0,0,0,61.259,17.147ZM43.471,44.9a6.974,6.974,0,0,0-1.477-2.7c0-.068.006-.134.006-.2a19.938,19.938,0,0,0-.641-4.935,5,5,0,0,1,1.765,5.245h0a1,1,0,0,0,.707,1.225l1.073.287A7.059,7.059,0,0,0,43.471,44.9ZM38.342,29.642l2.8.754a5.011,5.011,0,0,1,3.7,5.132l-2.8-.753a5.08,5.08,0,0,1-1.78-.891,20.023,20.023,0,0,0-1.884-3.326A5.039,5.039,0,0,1,38.342,29.642Zm-5.666-6.28a6.958,6.958,0,0,0-.7-1.638l1.064.285,1.062.284A6.96,6.96,0,0,0,32.676,23.362Zm6.813-5.749a6.956,6.956,0,0,0,.523,3.485,4.975,4.975,0,0,1-2.592.014l-2.8-.75A5.012,5.012,0,0,1,39.489,17.613Zm-4.9-1.4,1.068.287c-.022.012-.045.021-.067.034a7.052,7.052,0,0,0-1.368,1.04,7.051,7.051,0,0,0-.706-1.648ZM42.7,24.6a5.01,5.01,0,0,1,3.7,5.132l-2.8-.75a5.01,5.01,0,0,1-3.7-5.132ZM45.024,39.1a7.042,7.042,0,0,0-.666-1.587c-.012-.021-.026-.04-.038-.06l1.071.288c.008,0,.017,0,.026,0l1.044.28A7,7,0,0,0,45.024,39.1Zm1.548-5.8a7.016,7.016,0,0,0-.707-1.651l1.076.288,1.068.287c-.022.012-.045.021-.067.034A7.035,7.035,0,0,0,46.572,33.308Zm1.556-5.794a7.034,7.034,0,0,0-.707-1.651l1.073.287,1.071.287A7.009,7.009,0,0,0,48.128,27.514Zm-.841-6.383a4.965,4.965,0,0,1,.662,2.8l-2.8-.751a5.009,5.009,0,0,1-3.7-5.132l2.8.75A4.969,4.969,0,0,1,47.287,21.131Zm-5.347-9.16,2.8.75a4.994,4.994,0,0,1-2.607,2.39l.513-1.916a1,1,0,1,0-1.931-.517l-.749,2.793a4.981,4.981,0,0,1-.994-.154l-2.8-.751A5.005,5.005,0,0,1,41.94,11.971ZM28.8,14.66a5.01,5.01,0,0,1,3.7,5.132l-2.8-.75A5.008,5.008,0,0,1,26,13.91Zm4.611,10.934a4.971,4.971,0,0,1,4.53-2.187,6.98,6.98,0,0,0,.935,4.307L37.8,27.425a1,1,0,0,0-1.224.7c-.017.059-.025.12-.039.18A20.232,20.232,0,0,0,33.407,25.594Zm6.95,27.363-1.419-.379a20.08,20.08,0,0,0,2.69-6.8,4.986,4.986,0,0,1-.053,2.328h0a1,1,0,0,0,.707,1.222l1.068.286c-.022.012-.045.022-.066.034A6.942,6.942,0,0,0,40.357,52.957Zm10.1-5.021a4.974,4.974,0,0,1-3.794.5l-2.8-.751a5.006,5.006,0,0,1,5.767-2.6l2.8.751A4.965,4.965,0,0,1,50.458,47.936Zm1.552-5.8a4.968,4.968,0,0,1-3.794.5l-2.8-.75a5.01,5.01,0,0,1,5.768-2.6l2.8.75A4.958,4.958,0,0,1,52.01,42.141Zm-2.241-5.3-2.8-.751A5,5,0,0,1,52.736,33.5l2.8.75A5.011,5.011,0,0,1,49.769,36.845Zm1.553-5.8-2.8-.751A5.007,5.007,0,0,1,54.29,27.7l2.8.751A5.013,5.013,0,0,1,51.322,31.049Z"/><path d="M29.3,58.441A17.839,17.839,0,0,1,22,60,17.984,17.984,0,0,1,11.419,27.462a1,1,0,1,0-1.178-1.616A19.984,19.984,0,0,0,22,62a19.846,19.846,0,0,0,8.117-1.731,1,1,0,0,0-.813-1.828Z"/><path d="M31.881,30.692a1,1,0,0,0-.188-1.4A15.848,15.848,0,0,0,22,26,16,16,0,1,0,38,42a15.848,15.848,0,0,0-3.29-9.693,1,1,0,1,0-1.59,1.214,13.95,13.95,0,0,1,2.348,4.694A5.2,5.2,0,0,0,34,38c-2.243,0-4,1.318-4,3a2.557,2.557,0,0,0,.822,1.824,3.307,3.307,0,0,0-.628-.107,5.127,5.127,0,0,0-4.635,2.676A2.736,2.736,0,0,0,25.536,48a2.518,2.518,0,0,0,1.381,1.09A2.582,2.582,0,0,0,26,51c0,1.492,1.385,2.693,3.263,2.946a13.841,13.841,0,0,1-12.315,1.1A4.593,4.593,0,0,0,18,52c0-2.243-1.318-4-3-4-1.63,0-2.906,1.654-2.985,3.8A13.947,13.947,0,0,1,8,42a14.324,14.324,0,0,1,.083-1.5,2.424,2.424,0,0,0,1.138.285,3.137,3.137,0,0,0,1.386-.342,5.127,5.127,0,0,0,2.676-4.635A2.735,2.735,0,0,0,12,33.536a2.31,2.31,0,0,0-.917-.279,13.946,13.946,0,0,1,19.4-2.377A1,1,0,0,0,31.881,30.692ZM34,40a2.2,2.2,0,0,1,1.949.816c.009.112.01.225.017.337A2.153,2.153,0,0,1,34,42c-1.221,0-2-.592-2-1S32.779,40,34,40Zm-6.648,6.279a3.149,3.149,0,0,1,2.714-1.567.822.822,0,0,1,.666.288,1,1,0,0,0,1.732-1,2.286,2.286,0,0,0-.247-.317A5.154,5.154,0,0,0,34,44a5.029,5.029,0,0,0,1.9-.368,13.919,13.919,0,0,1-2.252,6.126,3.858,3.858,0,0,0-2.724-1.674.985.985,0,0,0-.055-.852,1,1,0,0,0-1.366-.366,2.929,2.929,0,0,1-1.566.422.608.608,0,0,1-.582-1.009ZM28,51c0-.408.779-1,2-1s2,.592,2,1-.779,1-2,1S28,51.408,28,51ZM15,50c.408,0,1,.779,1,2s-.592,2-1,2-1-.779-1-2S14.592,50,15,50ZM9.134,36.5a2.893,2.893,0,0,1,1.145-1.148,1.166,1.166,0,0,1,.5-.136.441.441,0,0,1,.223.052.822.822,0,0,1,.288.666,3.149,3.149,0,0,1-1.567,2.714A.823.823,0,0,1,9,38.732a.822.822,0,0,1-.288-.666,2.286,2.286,0,0,1,.054-.594c.1-.3.2-.593.323-.88C9.105,36.562,9.117,36.53,9.134,36.5Z"/><path d="M19,50c0,2.243,1.318,4,3,4s3-1.757,3-4-1.318-4-3-4S19,47.757,19,50Zm4,0c0,1.221-.592,2-1,2s-1-.779-1-2,.592-2,1-2S23,48.779,23,50Z"/><path d="M27,41c0-1.682-1.757-3-4-3s-4,1.318-4,3a1,1,0,0,0,2,0c0-.408.779-1,2-1s2,.592,2,1-.779,1-2,1a1,1,0,0,0,0,2C25.243,44,27,42.682,27,41Z"/><path d="M31,35c0-2.243-1.318-4-3-4s-3,1.757-3,4,1.318,4,3,4S31,37.243,31,35Zm-4,0c0-1.221.592-2,1-2s1,.779,1,2-.592,2-1,2S27,36.221,27,35Z"/><path d="M19.194,38.283a2.567,2.567,0,0,0,2.247-3.89,4.018,4.018,0,0,0-.37-.6A2.372,2.372,0,0,0,22,34c1.682,0,3-1.757,3-4a1,1,0,0,0-2,0c0,1.221-.592,2-1,2s-1-.779-1-2a1,1,0,0,0-2,0,4.861,4.861,0,0,0,.668,2.514c-.058-.036-.109-.078-.168-.112a4.888,4.888,0,0,0-2.694-.685,2.567,2.567,0,0,0-2.247,3.89A4.865,4.865,0,0,0,16.5,37.6a4.97,4.97,0,0,0,2.444.694C19.028,38.292,19.112,38.289,19.194,38.283Zm-2.842-3.562a.608.608,0,0,1,.582-1.009c.041,0,.082,0,.123,0a2.985,2.985,0,0,1,1.443.426,2.893,2.893,0,0,1,1.148,1.145.608.608,0,0,1-.582,1.009,2.938,2.938,0,0,1-1.566-.422A2.893,2.893,0,0,1,16.352,34.721Z"/><path d="M14.393,40.559a5.127,5.127,0,0,0-2.676,4.635A2.735,2.735,0,0,0,13,47.464a2.422,2.422,0,0,0,1.221.319,3.137,3.137,0,0,0,1.386-.342,5.127,5.127,0,0,0,2.676-4.635A2.735,2.735,0,0,0,17,40.536,2.733,2.733,0,0,0,14.393,40.559ZM15.866,44.5a2.893,2.893,0,0,1-1.145,1.148.823.823,0,0,1-.721.084.822.822,0,0,1-.288-.666,3.149,3.149,0,0,1,1.567-2.714,1.166,1.166,0,0,1,.5-.136.441.441,0,0,1,.223.052.822.822,0,0,1,.288.666A2.9,2.9,0,0,1,15.866,44.5Z"/></g></g></svg>
