<?xml version="1.0"?>
<svg xmlns="http://www.w3.org/2000/svg" viewBox="0 0 64 64" width="512" height="512"><g id="outline"><path d="M41.77,38.352,38,32.7V31.539l1.406-.625a.992.992,0,0,0,.3-.207l12-12a3.122,3.122,0,0,0-.948-5.064,3.12,3.12,0,0,0-.052-4.35,2.992,2.992,0,0,0-.957-.639,3.121,3.121,0,0,0-.043-4.361,3.2,3.2,0,0,0-4.353-.059,3.136,3.136,0,0,0-.647-.941,3.2,3.2,0,0,0-4.414,0L30,13.586V7a3,3,0,0,0-6,0V18.586l-2.293-2.293a3.126,3.126,0,0,0-5.061.94,3.122,3.122,0,0,0-4.413,4.413,3.138,3.138,0,0,0-.94.648,3.121,3.121,0,0,0-.058,4.354,3.131,3.131,0,0,0-.942.646,3.12,3.12,0,0,0,0,4.413l2.014,2.014L2.274,44.312A1,1,0,0,0,2,45v9a1,1,0,0,0,1,1H16a1,1,0,0,0,.819-.427L23.942,44.4l8.428,2.46,9.8,14.7A1,1,0,0,0,43,62H61a1,1,0,0,0,1-1V58a1,1,0,0,0-.312-.725ZM30,16.414,41.707,4.707a1.125,1.125,0,0,1,1.586,0,1.123,1.123,0,0,1,0,1.586l-9,9,1.414,1.414,11-11a1.125,1.125,0,0,1,1.586,0,1.124,1.124,0,0,1,0,1.588l-10,10,1.414,1.414,8.1-8.1a1.133,1.133,0,0,1,.691-.232,1.1,1.1,0,0,1,.793.327,1.124,1.124,0,0,1,0,1.588l-8,8,1.414,1.414,6.1-6.1a1.124,1.124,0,0,1,1.482,1.683L38.424,29.162,38,29.35V24a2.993,2.993,0,0,0-2.073-2.838,4.461,4.461,0,0,0-1.511-2.94A6.726,6.726,0,0,0,30,16.921ZM18.709,17.707a1.123,1.123,0,0,1,1.584,0l3.019,3.021-1.268,1.9-3.337-3.337a1.12,1.12,0,0,1,0-1.586Zm-5,1a1.123,1.123,0,0,1,1.584,0l5.62,5.62-.7,1.047-.694.733-5.814-5.814a1.12,1.12,0,0,1,0-1.586Zm-1,5a1.147,1.147,0,0,1,1.584,0l3.852,3.852L16.6,29.188l-3.895-3.895a1.12,1.12,0,0,1,0-1.586Zm-1,6.586a1.121,1.121,0,0,1,1.586-1.586l1.933,1.933-1.543,1.629ZM15.479,53H4V45.4l17.726-18.71a1.03,1.03,0,0,0,.106-.133l4-6A1.006,1.006,0,0,0,26,20V7a1,1,0,0,1,2,0V18a1,1,0,0,0,1.164.986c.026,0,2.595-.393,3.959.762a2.429,2.429,0,0,1,.8,1.46A3,3,0,0,0,32,24l-.007,8.02-2.4,1.067a1.006,1.006,0,0,0-.413.34ZM60,60H43.535l-9.7-14.555a1,1,0,0,0-.552-.405l-8.127-2.372L30.66,34.8,33.4,33.583a1,1,0,0,0,.594-.912L34,24a1,1,0,0,1,2,0v9a1.006,1.006,0,0,0,.168.555l4,6a.933.933,0,0,0,.144.17L60,58.429Z"/><path d="M8,10a4,4,0,1,0,4-4A4,4,0,0,0,8,10Zm6,0a2,2,0,1,1-2-2A2,2,0,0,1,14,10Z"/><path d="M5,19a3,3,0,1,0-3-3A3,3,0,0,0,5,19Zm0-4a1,1,0,1,1-1,1A1,1,0,0,1,5,15Z"/><path d="M43,34a4,4,0,0,0,4,4,3.96,3.96,0,0,0,1.747-.4A4.993,4.993,0,1,0,54,30.1c0-.033,0-.067,0-.1a4,4,0,0,0-8,0c0,.042,0,.084,0,.126A4.006,4.006,0,0,0,43,34Zm4-2c.025,0,.1.016.128.017a1,1,0,0,0,1-1.34A1.958,1.958,0,0,1,48,30a2,2,0,0,1,4,0c0,.041-.009.083-.012.125a5,5,0,0,0-2.738,1.587l1.5,1.323a3,3,0,1,1-.624,2.766,1,1,0,0,0-1.686-.422A1.978,1.978,0,0,1,47,36a2,2,0,0,1,0-4Z"/></g></svg>
