<svg id="Capa_1" enable-background="new 0 0 512 512" height="512" viewBox="0 0 512 512" width="512" xmlns="http://www.w3.org/2000/svg"><g><path d="m511.545 493.334-57.099-226.525c21.28-7.6 36.554-27.95 36.554-51.809 0-21.304-12.505-40.238-30.916-49.254.61-3.546.916-7.133.916-10.746 0-34.662-27.274-63.074-61.488-64.906-6.93-34.24-37.258-60.094-73.512-60.094-6.711 0-13.382.915-19.826 2.694-8.536-19.349-27.814-32.694-50.174-32.694s-41.638 13.345-50.174 32.694c-6.444-1.779-13.114-2.694-19.826-2.694-36.254 0-66.582 25.854-73.512 60.094-34.213 1.832-61.488 30.244-61.488 64.906 0 3.613.306 7.2.916 10.746-18.411 9.016-30.916 27.95-30.916 49.254 0 23.859 15.274 44.209 36.554 51.808l-57.099 226.526c-1.13 4.484-.129 9.239 2.713 12.886s7.208 5.78 11.832 5.78h482c4.624 0 8.99-2.133 11.832-5.78s3.843-8.403 2.713-12.886zm-350.521-101.363c5.981-2.126 9.976-7.786 9.976-14.134v-3.674c0-6.347-3.995-12.007-9.976-14.133-5.996-2.132-10.024-7.77-10.024-14.03 0-8.271 6.729-15 15-15s15 6.729 15 15c0 8.284 6.716 15 15 15h120c8.284 0 15-6.716 15-15 0-8.271 6.729-15 15-15s15 6.729 15 15c0 6.26-4.028 11.898-10.024 14.03-5.98 2.126-9.976 7.786-9.976 14.133v3.674c0 6.348 3.995 12.008 9.976 14.134 5.996 2.131 10.024 7.769 10.024 14.029 0 8.271-6.729 15-15 15s-15-6.729-15-15c0-8.284-6.716-15-15-15h-120c-8.284 0-15 6.716-15 15 0 8.271-6.729 15-15 15s-15-6.729-15-15c0-6.26 4.028-11.898 10.024-14.029zm184.976-90.971c-19.556 0-36.239 12.539-42.43 30h-95.14c-6.191-17.461-22.874-30-42.43-30-24.813 0-45 20.187-45 45 0 5.208.922 10.265 2.618 15h-58.868l22.938-91h336.624l22.938 91h-58.868c1.696-4.735 2.618-9.792 2.618-15 0-24.813-20.187-45-45-45zm-273.424-110.589c4.688-.648 8.794-3.471 11.08-7.614 2.286-4.144 2.481-9.123.529-13.434-2.114-4.665-3.185-9.497-3.185-14.363 0-19.299 15.701-35 35-35 2.37 0 4.743.239 7.052.71 4.454.909 9.08-.251 12.578-3.154s5.491-7.235 5.419-11.78c-.006-.361-.022-.718-.048-1.109.179-24.661 20.296-44.667 44.999-44.667 7.9 0 15.721 2.128 22.617 6.156 4.534 2.647 10.124 2.732 14.736.221s7.576-7.25 7.813-12.497c.606-13.391 11.514-23.88 24.834-23.88s24.229 10.489 24.834 23.88c.237 5.246 3.201 9.986 7.813 12.497s10.202 2.426 14.736-.221c6.896-4.027 14.717-6.156 22.617-6.156 24.701 0 44.817 20.005 44.999 44.665-.024.369-.042.739-.048 1.112-.072 4.545 1.921 8.877 5.419 11.78 3.499 2.903 8.125 4.063 12.578 3.154 2.31-.472 4.683-.71 7.052-.71 19.299 0 35 15.701 35 35 0 4.866-1.071 9.698-3.185 14.363-1.953 4.311-1.757 9.29.529 13.434 2.285 4.144 6.392 6.966 11.08 7.614 12.3 1.7 21.576 12.272 21.576 24.588 0 13.785-11.215 25-25 25h-360c-13.785 0-25-11.215-25-25 0-12.316 9.276-22.888 21.576-24.589zm-38.326 291.589 22.938-91h66.43c-1.696 4.735-2.618 9.792-2.618 15 0 24.813 20.187 45 45 45 19.556 0 36.239-12.539 42.43-30h95.141c6.191 17.461 22.874 30 42.43 30 24.813 0 45-20.187 45-45 0-5.208-.922-10.265-2.618-15h66.43l22.938 91z"/><path d="m176 170c8.284 0 15-6.716 15-15 0-8.271 6.729-15 15-15 8.284 0 15-6.716 15-15s-6.716-15-15-15c-24.813 0-45 20.187-45 45 0 8.284 6.716 15 15 15z"/><path d="m306 200c24.813 0 45-20.187 45-45 0-8.284-6.716-15-15-15s-15 6.716-15 15c0 8.271-6.729 15-15 15-8.284 0-15 6.716-15 15s6.716 15 15 15z"/></g></svg>